# xmcd CD database file
#
# Track frame offsets:
#	150
#	12785
#	26707
#	40441
#	55521
#	71638
#	87036
#	99773
#	116921
#	140876
#	158862
#	176436
#	188046
#	202964
#	223220
#	244791
#	255434
#	271188
#	288098
#	298952
#
# Disc length: 4176 seconds
#
# Revision: 1
# Processed by: cddbd v1.5.1PL0 Copyright (c) Steve Scherf et al.
# Submitted via: CDex 1.51
#
DISCID=22104e14
DTITLE=Dwight Yoakam - The Very Best Of Dwight Yoakam
DYEAR=2004
DGENRE=Country
TTITLE0=Honky Tonk Man
TTITLE1=Guitars, Cadillacs
TTITLE2=Little Sister
TTITLE3=Little Ways
TTITLE4=Please, Baby Please
TTITLE5=Turn It On, Turn It Up, Turn Me Loose
TTITLE6=Streets Of Bakersfield
TTITLE7=I Sang Dixie
TTITLE8=Long White Cadillac
TTITLE9=You're The One
TTITLE10=Suspicious Minds
TTITLE11=It Only Hurts When I Cry
TTITLE12=Ain't That Lonely Yet
TTITLE13=A Thousand Miles From Nowhere
TTITLE14=Fast As You
TTITLE15=Crazy Little Thing Called Love
TTITLE16=I Want You To Want Me
TTITLE17=Things Change
TTITLE18=The Late Great Golden State
TTITLE19=Dwight Yoakam - The Very Best Of - 20 - The Back Of Your Hand
EXTD=YEAR: 2004
EXTT0=
EXTT1=
EXTT2=
EXTT3=
EXTT4=
EXTT5=
EXTT6=
EXTT7=
EXTT8=
EXTT9=
EXTT10=
EXTT11=
EXTT12=
EXTT13=
EXTT14=
EXTT15=
EXTT16=
EXTT17=
EXTT18=
EXTT19=
PLAYORDER=
